<svg width="244" height="245" viewBox="0 0 244 245" fill="none" xmlns="http://www.w3.org/2000/svg">
<path d="M186 4.5L190.105 2.38237L189.886 6.996L186 4.5ZM4.28241 244.607L2.06395 240.556L6.68158 240.661L4.28241 244.607ZM189.617 4.2708C192.017 4.39225 194.33 4.52548 196.559 4.67044L196.507 5.46875C194.283 5.32406 191.973 5.19105 189.576 5.06978L189.617 4.2708ZM216.498 6.56553C225.114 7.7254 231.647 9.19676 236.324 10.981L236.039 11.7285C231.445 9.97598 224.982 8.51478 216.392 7.35838L216.498 6.56553ZM243.376 26.6115C240.543 30.6792 235.303 35.2341 228.28 40.2593L227.815 39.6087C234.827 34.5908 239.97 30.1021 242.72 26.1543L243.376 26.6115ZM211.317 51.3769C205.938 54.6899 200.079 58.1673 193.855 61.8058L193.451 61.1152C199.673 57.478 205.526 54.0041 210.897 50.6958L211.317 51.3769ZM176.301 71.9845C170.596 75.2817 164.705 78.6911 158.691 82.2112L158.287 81.5209C164.302 77.9995 170.196 74.5891 175.9 71.2919L176.301 71.9845ZM141.263 92.5547C135.537 96.0081 129.762 99.555 123.991 103.194L123.564 102.517C129.34 98.875 135.12 95.3253 140.849 91.8697L141.263 92.5547ZM106.962 114.238C101.333 118.002 95.758 121.854 90.2882 125.793L89.8207 125.144C95.299 121.199 100.882 117.341 106.517 113.573L106.962 114.238ZM74.101 137.983C68.7225 142.232 63.511 146.572 58.5221 151.001L57.9909 150.403C62.9926 145.962 68.216 141.612 73.6051 137.355L74.101 137.983ZM43.8489 165.001C39.047 169.956 34.569 175.013 30.4838 180.169L29.8568 179.672C33.9605 174.493 38.4563 169.416 43.2743 164.444L43.8489 165.001ZM18.9547 196.803C15.4288 202.747 12.4751 208.811 10.1864 214.99L9.43625 214.712C11.7435 208.482 14.719 202.376 18.2666 196.394L18.9547 196.803ZM5.3237 234.519C5.04987 236.675 4.86189 238.844 4.76334 241.026L3.96414 240.99C4.06371 238.786 4.25356 236.596 4.53008 234.418L5.3237 234.519ZM186 4.5L194.224 0.292339L193.756 9.51809L186 4.5ZM4.28241 244.607L0.0288849 236.407L9.25711 236.824L4.28241 244.607ZM193.237 4.06603C194.374 4.13161 195.49 4.20003 196.585 4.27128L196.481 5.86791C195.39 5.79692 194.278 5.72874 193.145 5.66338L193.237 4.06603ZM216.552 6.16911C225.181 7.33071 231.748 8.80714 236.467 10.6073L235.897 12.1022C231.344 10.3656 224.916 8.90947 216.338 7.7548L216.552 6.16911ZM243.704 26.8401C240.83 30.9677 235.54 35.5558 228.513 40.5846L227.582 39.2834C234.589 34.2691 239.684 29.8136 242.391 25.9257L243.704 26.8401ZM211.526 51.7175C206.144 55.0328 200.283 58.5119 194.057 62.1512L193.249 60.7698C199.47 57.1334 205.32 53.6612 210.687 50.3552L211.526 51.7175ZM176.501 72.3308C170.796 75.628 164.906 79.0369 158.894 82.5564L158.085 81.1757C164.101 77.6536 169.996 74.2428 175.7 70.9456L176.501 72.3308ZM141.469 92.8972C135.745 96.3495 129.973 99.895 124.204 103.532L123.35 102.179C129.13 98.535 134.912 94.9839 140.643 91.5271L141.469 92.8972ZM107.184 114.571C101.559 118.332 95.9876 122.182 90.5219 126.118L89.5869 124.819C95.0694 120.871 100.656 117.011 106.295 113.24L107.184 114.571ZM74.349 138.296C68.9758 142.541 63.7702 146.876 58.7877 151.3L57.7253 150.104C62.7334 145.657 67.9628 141.302 73.3572 137.041L74.349 138.296ZM44.1361 165.279C39.3423 170.226 34.8733 175.273 30.7973 180.418L29.5432 179.424C33.6562 174.233 38.161 169.146 42.9871 164.166L44.1361 165.279ZM19.2987 197.007C15.7836 202.933 12.8409 208.975 10.5615 215.129L9.06114 214.573C11.3777 208.318 14.3642 202.19 17.9226 196.19L19.2987 197.007ZM5.7205 234.57C5.59734 235.539 5.49162 236.512 5.40369 237.487L3.81015 237.343C3.89984 236.349 4.00766 235.357 4.13326 234.368L5.7205 234.57Z" fill="#FFD600"/>
</svg>
